<svg width="18" height="30" viewBox="0 0 18 30" fill="none" xmlns="http://www.w3.org/2000/svg">
<rect width="18" height="30" fill="#E5E5E5"/>
<g id="Cash App" clip-path="url(#clip0_0_1)">
<rect width="1366" height="3695" transform="translate(-673 -628)" fill="white"/>
<g id="Hero Section">
<rect width="1366" height="721" transform="translate(-673 -655)" fill="black"/>
<g id="rays" clip-path="url(#clip1_0_1)">
<g id="Hero" clip-path="url(#clip2_0_1)">
<g id="Layer 1">
<g id="Frame 1" clip-path="url(#clip3_0_1)">
<path id="Vector" opacity="0.3" fill-rule="evenodd" clip-rule="evenodd" d="M-36.9141 -333.565L-70.5897 -426.092C-70.9545 -427.131 -71.6076 -428.905 -72.549 -431.411L-71.6678 -431.767L-69.7139 -426.409C-61.1468 -402.572 -55.7231 -387.521 -53.4426 -381.257C-51.8664 -376.922 -44.1385 -355.708 -36.1205 -333.855L-36.9141 -333.565ZM-20.0244 -338.102L-21.8086 -350.81L-20.993 -350.925C-20.4074 -346.793 -19.8 -342.529 -19.1924 -338.244L-20.0244 -338.102ZM3.09918 -339.492L3.59174 -346.536L4.42365 -346.492C4.26495 -344.16 4.10077 -341.802 3.94202 -339.443L3.09918 -339.492ZM71.1946 -307.617L76.3008 -311.995L77.0781 -311.098L72.01 -306.719C71.7418 -307.031 71.4682 -307.327 71.1946 -307.617ZM91.2258 -275.873L96.0859 -277.63L134.818 -291.663L135.311 -290.503C117.912 -284.209 102.073 -278.462 91.691 -274.746C91.5268 -275.129 91.379 -275.518 91.2258 -275.901V-275.873ZM95.7246 -216.765L129.334 -208.938L214.407 -189.115L213.958 -187.949C164.564 -199.443 111.312 -211.85 107.897 -212.726C106.299 -213.136 101.641 -214.247 95.4729 -215.698C95.5604 -216.07 95.6425 -216.425 95.7246 -216.781V-216.765ZM89.5511 -198.156L91.9209 -197.062L91.5269 -196.027L89.1023 -197.171C89.2501 -197.527 89.3924 -197.85 89.5511 -198.189V-198.156ZM77.6363 -178.06L82.2829 -174.546L81.5768 -173.676C80.236 -174.699 78.6817 -175.865 76.9631 -177.189C77.193 -177.503 77.4174 -177.804 77.6363 -178.092V-178.06ZM49.7621 -152.971L59.2195 -137.871L58.4752 -137.422C55.6457 -141.954 52.1649 -147.504 49.0124 -152.522L49.7621 -152.971ZM32.8615 -144.762C39.9764 -125.228 47.3759 -105.017 47.3759 -105.017L68.1132 -48.2285L67.1937 -47.8782C55.6183 -79.5286 42.4995 -115.448 41.7496 -117.698C40.9396 -120.122 36.0632 -133.476 32.0405 -144.461L32.8615 -144.762ZM8.9389 -139.075L9.56281 -134.658L8.70355 -134.554C8.49005 -136.049 8.27667 -137.532 8.07416 -138.982L8.9389 -139.075ZM-27.8344 -141.675C-29.3777 -135.069 -30.8336 -128.813 -32.1252 -123.275L-33.2526 -123.51C-32.4481 -126.794 -30.8116 -133.739 -28.8742 -141.959L-27.8344 -141.675ZM-65.9813 -161.055C-80.2112 -142.244 -91.9508 -126.723 -91.9508 -126.723C-91.9508 -126.723 -135.686 -68.9384 -165.251 -29.85L-166.198 -30.5999C-132.079 -75.7249 -82.4606 -141.368 -79.7241 -144.778C-78.2737 -146.612 -73.0579 -153.464 -66.7749 -161.744L-65.9813 -161.055ZM-80.1729 -175.197C-97.3034 -160.376 -111.161 -148.379 -111.161 -148.379L-156.823 -108.848L-157.627 -109.8C-126.217 -137.001 -97.7358 -161.646 -95.4973 -163.496C-93.8171 -164.886 -88.0267 -169.866 -80.8625 -176.084C-80.6216 -175.761 -80.3918 -175.476 -80.1565 -175.197H-80.1729ZM-97.6318 -206.459C-125.791 -196.328 -172.612 -179.362 -172.612 -179.362L-266.956 -145.347L-267.279 -146.278L-266.732 -146.48C-254.385 -150.935 -137.711 -193.209 -134.432 -194.391L-98.0095 -207.603C-97.8727 -207.22 -97.7468 -206.831 -97.6154 -206.459H-97.6318ZM-102.339 -227.218C-122.518 -224.482 -154.48 -220.038 -172.131 -217.591L-172.267 -218.686L-144.404 -222.555L-102.47 -228.406C-102.415 -228.023 -102.366 -227.629 -102.322 -227.218H-102.339ZM-100.527 -261.419C-119.978 -265.995 -152.762 -273.64 -175.776 -279.004L-175.546 -280.099L-154.201 -275.129L-100.248 -262.601C-100.33 -262.207 -100.418 -261.813 -100.522 -261.419H-100.527ZM-93.1111 -282.644C-123.76 -297.076 -185.808 -326.149 -185.808 -326.149L-298.552 -379.122L-298.185 -380.036L-292.554 -377.382C-278.395 -370.748 -144.919 -308.235 -141.175 -306.473C-139.763 -305.811 -118.588 -295.91 -92.5638 -283.727L-93.1111 -282.644ZM-83.4622 -298.663L-93.653 -306.402L-92.9743 -307.376L-82.7343 -299.637L-83.4622 -298.663ZM-255.687 -23.7257L-255.452 -23.4467C-283.589 0.913818 -333.224 43.8716 -342.539 51.9334C-355.389 63.0381 -466.853 159.369 -475.429 166.774L-544.258 226.26L-544.805 225.39C-544.805 225.39 -485.532 174.376 -478.522 168.317C-473.848 164.278 -463.582 155.372 -447.725 141.598C-391.458 92.6436 -360.921 66.0884 -356.112 61.9326C-351.602 58.0303 -337.723 46.0937 -327.269 37.0632L-327.411 36.9044L-256.262 -24.9407L-255.419 -23.9666L-255.687 -23.7257ZM-144.711 -404.615L-144.974 -404.916L-143.999 -405.759L-111.796 -368.718L-112.77 -367.87L-113.432 -368.63L-113.547 -368.526L-135.855 -394.293L-144.749 -404.583L-144.711 -404.615ZM166.54 -388.689L154.111 -377.918L113.227 -342.382L112.379 -343.356L166.015 -389.964L166.863 -388.99L166.54 -388.689ZM-250.701 -259.744L-250.63 -260.762L-166.313 -254.742L-166.389 -253.648L-183.525 -254.873L-250.701 -259.744ZM-380.828 -269.049L-381.452 -269.087C-441.371 -273.192 -474.196 -275.483 -479.928 -275.961C-488.532 -276.689 -553.748 -281.346 -559.353 -281.751C-563.093 -282.025 -573.199 -282.806 -589.673 -284.094L-589.421 -285.446C-537.048 -281.75 -506.29 -279.56 -497.146 -278.878L-380.74 -270.411L-380.828 -269.049ZM243.803 -223.956C228.878 -225.051 178.871 -228.587 138.622 -231.476L138.797 -232.724L240.683 -225.396L243.967 -225.16L243.803 -223.956ZM291.571 -220.437L291.752 -221.723C320.212 -219.676 351.408 -217.438 358.901 -216.891L506.36 -206.131L582.742 -200.559C582.616 -199.875 582.55 -199.536 582.55 -199.536C582.55 -199.536 516.874 -204.461 509.124 -205.052L474.885 -207.466C412.248 -211.786 378.251 -214.129 372.895 -214.493C364.888 -215.074 330.402 -217.695 327.179 -217.827C325.646 -217.914 309.189 -219.113 291.571 -220.41V-220.437ZM-14.524 -86.5396C-13.5717 -100.31 -12.8821 -110.205 -12.7617 -111.371C-12.5646 -113.401 -11.9024 -122.804 -11.2456 -132.442H-10.3754C-11.6342 -114.25 -12.7781 -97.5186 -12.7781 -97.5186C-12.7781 -97.5186 -13.0682 -93.2933 -13.5334 -86.5396H-14.524ZM-18.4262 -29.4778V-28.4489H-17.4958C-18.8258 -9.15649 -19.9368 6.98346 -20.0298 8.28601C-20.2652 11.6519 -25.5029 87.5299 -26.2417 98.3994C-26.9806 109.269 -33.592 203.574 -34.101 210.826C-34.4403 215.664 -35.7976 235.075 -38.1729 269.059L-38.983 268.999C-38.983 268.999 -35.3598 218.937 -34.9438 213.01C-34.6702 209.051 -34.0827 200.351 -33.1815 186.909C-30.0327 139.173 -28.3179 113.268 -28.0369 109.192C-27.61 103.084 -25.6889 76.7864 -25.6014 74.3345C-25.5138 71.8826 -21.8359 20.4744 -21.3652 13.8083C-21.2175 11.2633 -19.9532 -7.3504 -18.4262 -29.4778ZM6.20239 -383.905L8.84033 -421.669L9.70514 -421.626C8.55945 -406.1 7.81329 -395.835 7.46667 -390.829C7.37909 -389.63 7.2149 -387.217 6.98505 -383.889L6.20239 -383.905ZM11.3361 -459.028C11.4674 -461.152 11.6079 -463.432 11.7575 -465.87C14.7495 -511.525 16.4241 -536.543 16.7817 -540.921C17.329 -547.489 20.7168 -597.2 21.0178 -601.475C21.2148 -604.321 21.7859 -612.028 22.7309 -624.598L23.8255 -624.527C21.1328 -584.61 19.5438 -561.164 19.0585 -554.188L12.3978 -458.957L11.3361 -459.028ZM298.314 -504.016L299.102 -503.108L292.08 -497.038C262.161 -471.341 243.263 -455.093 235.385 -448.296C231.784 -445.187 218.917 -434.066 202.678 -419.978L202.011 -420.75L291.44 -497.996C292.768 -499.156 295.06 -501.163 298.314 -504.016ZM334.321 -535.443C381.199 -576.228 407.065 -598.676 411.918 -602.788C419.739 -609.416 478.437 -660.255 483.489 -664.633C486.86 -667.552 495.998 -675.397 510.903 -688.167L511.647 -687.023C464.539 -646.158 436.866 -622.157 428.627 -615.02L335.263 -534.337L334.321 -535.443ZM137.779 -79.7859L195.536 -13.0697C198.973 -9.09082 276.57 80.519 287.68 93.3806L402.521 226.277L462.001 295.105L461.131 295.653C461.131 295.653 410.112 236.418 404.091 229.407C400.052 224.733 391.146 214.466 377.372 198.605C328.414 142.328 301.848 111.785 297.674 106.976C291.44 99.7567 264.655 68.6097 262.099 65.7747C259.543 62.9396 207.079 2.10693 200.254 -5.76874C196.91 -9.64362 166.945 -44.2112 136.838 -78.965L137.779 -79.7859ZM-211.898 -482.283L-262.249 -540.571C-265.376 -544.183 -274.681 -554.828 -290.162 -572.506C-336.996 -626.324 -362.628 -655.838 -367.058 -661.049C-373.669 -668.869 -424.525 -727.573 -428.903 -732.625C-431.822 -735.992 -439.667 -745.129 -452.437 -760.034L-451.288 -760.778C-410.404 -713.659 -386.4 -685.985 -379.274 -677.758L-261.275 -541.233C-235.574 -511.314 -219.326 -492.415 -212.533 -484.538L-211.148 -482.934L-211.898 -482.283ZM-389.585 -100.758C-426.823 -87.1672 -447.621 -79.6126 -451.977 -78.0948C-460.132 -75.2598 -521.605 -52.99 -526.892 -51.0854C-530.417 -49.8157 -539.965 -46.4169 -555.538 -40.8892L-555.861 -42.2245C-506.516 -60.1542 -477.529 -70.6752 -468.9 -73.7875L-390.088 -102.209L-389.585 -100.758ZM231.981 -325.525L231.505 -326.619C251.252 -333.734 326.429 -360.963 338.36 -365.264L477.43 -415.441L549.471 -441.416L549.718 -440.404C549.718 -440.404 487.73 -418.221 480.396 -415.578C475.5 -413.816 464.751 -409.91 448.149 -403.86C389.161 -382.333 357.144 -370.657 352.098 -368.833C344.545 -366.096 311.975 -354.482 308.976 -353.289C305.976 -352.096 242.341 -329.263 234.094 -326.285L231.981 -325.525ZM88.0405 6.34308C95.8834 27.8192 111.859 71.5541 114.711 79.397C118.438 89.637 150.772 178.459 153.257 185.3L173.223 240.151L172.456 240.43C172.456 240.43 155.408 193.219 153.372 187.637C152.022 183.912 149.021 175.724 144.369 163.074C127.822 118.195 118.854 93.8348 117.464 89.9928C115.367 84.2406 106.43 59.4369 105.51 57.1546C104.755 55.2719 92.5941 21.7387 87.1375 6.68237L88.0405 6.34308ZM-99.8594 -505.357C-103.3 -514.742 -105.343 -520.35 -105.989 -522.181C-108.178 -528.399 -125.282 -575.199 -126.748 -579.221C-127.723 -581.903 -130.335 -589.179 -134.586 -601.048L-133.573 -601.414C-119.796 -563.848 -111.712 -541.78 -109.322 -535.213L-98.6334 -505.839L-99.8594 -505.357ZM-91.3214 -54.4567L-90.194 -53.9094L-133.36 38.0921C-135.593 42.8481 -185.901 150.196 -193.131 165.57C-200.361 180.944 -263.005 314.277 -267.821 324.534L-306.51 406.87L-307.375 406.323C-307.375 406.323 -273.989 335.611 -270.038 327.227C-267.411 321.637 -261.653 309.324 -252.765 290.289C-221.251 222.675 -204.142 185.986 -201.439 180.221C-197.383 171.59 -179.82 134.45 -178.282 130.964C-176.744 127.478 -142.5 54.7794 -138.067 45.3548C-135.68 40.2704 -112.562 -9.10724 -91.3214 -54.4567ZM80.236 -419.869L81.2157 -419.321L60.4893 -375.072C60.1116 -374.273 56.8169 -367.224 51.831 -356.568L50.813 -357.115C64.7637 -386.845 80.1594 -419.732 80.1594 -419.732L80.236 -419.869ZM100.579 -463.177L162.375 -594.694C164.407 -599.017 170.351 -611.839 180.206 -633.158C210.319 -697.838 226.857 -733.256 229.819 -739.411C234.269 -748.65 267.211 -818.989 270.051 -825.031C271.945 -829.045 277.103 -839.925 285.524 -857.672L286.673 -856.923C260.267 -800.437 244.746 -767.258 240.109 -757.385C235.471 -747.511 209.89 -693.066 163.366 -594.048C146.469 -558.396 135.813 -535.866 131.398 -526.456C128.568 -520.436 115.603 -492.769 101.51 -462.684L100.579 -463.177ZM-391.687 -422.704L-399.239 -426.196C-463.919 -456.304 -499.337 -472.842 -505.493 -475.809C-514.731 -480.258 -585.07 -513.2 -591.113 -516.035C-595.126 -517.929 -606.007 -523.088 -623.754 -531.513L-623.009 -532.657C-566.502 -506.266 -533.319 -490.746 -523.461 -486.098L-391.178 -423.941L-391.687 -422.704ZM295.266 -100.386L279.306 -107.917C274.419 -110.216 228.56 -131.676 184.722 -152.216L185.165 -153.382L272.044 -112.651L295.742 -101.536L295.266 -100.386ZM388.471 -56.6514L388.926 -57.8336C393.769 -55.5623 397.442 -53.8438 399.483 -52.9079L558.453 21.7825L640.789 60.4713C640.411 61.0515 640.241 61.336 640.241 61.336C640.241 61.336 569.53 27.9506 561.145 23.9991C555.555 21.372 543.243 15.6162 524.208 6.73163C456.594 -24.7711 419.91 -41.8743 414.156 -44.5779C409.947 -46.5209 399.007 -51.6874 388.477 -56.6514H388.471ZM-301.382 -199.809L-346.124 -193.658C-350.108 -193.11 -361.884 -191.417 -381.452 -188.579C-440.925 -180.143 -473.512 -175.567 -479.211 -174.852C-487.776 -173.758 -552.55 -164.771 -558.099 -164.005C-561.81 -163.498 -571.858 -162.159 -588.245 -159.988L-588.278 -161.367C-536.291 -168.639 -505.752 -172.902 -496.659 -174.157L-346.151 -194.845C-327.291 -197.363 -312.41 -199.355 -301.507 -200.822L-301.382 -199.809ZM292.934 -281.73C272.64 -278.949 248.499 -275.665 243.518 -274.981C240.234 -274.527 216.443 -271.216 188.027 -267.27L187.879 -268.501L236.19 -275.189L292.775 -283.032L292.934 -281.73ZM388.904 -295.029L388.75 -296.282L500.072 -311.607L575.939 -322.006C575.939 -321.316 575.966 -320.966 575.966 -320.966C575.966 -320.966 510.722 -312.16 503 -311.114C497.851 -310.403 486.521 -308.817 469.007 -306.358L388.904 -295.029ZM-32.7765 -428.834L-33.7726 -435.948C-34.1995 -438.984 -35.5185 -447.951 -37.7296 -462.848C-44.2972 -508.129 -47.862 -532.94 -48.4239 -537.282C-49.2613 -543.816 -56.2722 -593.15 -56.8688 -597.392C-57.2701 -600.216 -58.3136 -607.878 -59.9993 -620.378L-58.9047 -620.526C-53.2419 -580.931 -49.9217 -557.669 -48.9438 -550.74C-47.966 -543.811 -42.5951 -505.587 -32.8312 -436.069C-32.4919 -433.606 -32.1672 -431.234 -31.8571 -428.954L-32.7765 -428.834ZM16.7489 -76.9837L17.734 -77.1041C21.9592 -47.2652 29.3916 5.19922 29.7255 7.58545C30.1961 10.924 40.874 86.2273 42.39 97.0256C43.9061 107.824 57.0632 201.429 58.0757 208.626C58.7507 213.424 61.4581 232.693 66.1977 266.432L65.3932 266.542C65.3932 266.542 58.53 216.819 57.7036 210.936C57.1526 207.013 55.9175 198.382 53.9983 185.043C47.1534 137.694 43.4464 112 42.8771 107.961C42.0233 101.902 38.4385 75.7739 38.0116 73.3602C37.5847 70.9467 30.4971 19.8943 29.5721 13.2774C28.9592 8.9209 21.7458 -41.6882 16.7489 -76.9837ZM-243.975 74.1757C-259.081 94.1359 -272.594 111.989 -276.627 117.309L-382.738 257.281L-437.698 329.766L-438.432 329.033C-438.432 329.033 -391.057 266.81 -385.464 259.427C-381.731 254.505 -373.54 243.659 -360.89 226.89C-316.011 167.299 -291.656 134.972 -287.825 129.908C-282.062 122.311 -257.176 89.637 -254.927 86.5174C-254.16 85.4228 -247.948 77.2133 -239.865 66.5737L-244.9 73.5026L-243.975 74.1757ZM91.7567 -371.142L112.379 -398.387L155.227 -454.902L156.141 -454.414L92.6761 -370.475L91.7567 -371.142ZM184.448 -493.454L229.151 -552.425C232.041 -556.235 240.521 -567.546 254.59 -586.358C297.495 -643.365 321.029 -674.572 325.192 -679.98C331.464 -688.091 378.281 -750.034 382.342 -755.36C385.031 -758.906 392.339 -768.477 404.266 -784.071L405.23 -783.102C367.648 -733.331 345.574 -704.101 339.006 -695.414L229.983 -551.588C206.847 -521.275 191.959 -501.743 185.318 -492.994L184.448 -493.454ZM288.025 -18.8821L287.209 -17.8806C268.333 -32.2034 246.868 -48.5294 242.292 -51.9829C239.102 -54.402 216.098 -71.7899 188.684 -92.5217L189.461 -93.4794L236.173 -58.1237C238.259 -56.5475 262.455 -38.2292 288.025 -18.8821ZM395.159 62.2665L488.376 132.956L560.872 187.916L560.138 188.644C560.138 188.644 497.937 141.253 490.565 135.676C485.643 131.951 474.796 123.761 458.022 111.108L394.415 63.1968L395.159 62.2665ZM-148.761 -348.156L-167.238 -362.139L-299.526 -462.422L-298.908 -463.308C-279.822 -448.754 -267.184 -439.128 -260.996 -434.432C-251.676 -427.394 -183.164 -375.565 -148.137 -349.07L-148.761 -348.156ZM-381.605 -524.239C-421.92 -554.593 -444.33 -571.512 -448.836 -574.996C-456.947 -581.268 -518.891 -628.084 -524.216 -632.145C-527.762 -634.838 -537.333 -642.147 -552.927 -654.07L-551.959 -655.034C-502.187 -617.452 -472.959 -595.378 -464.275 -588.81L-380.74 -525.471L-381.605 -524.239ZM-328.818 -38.2621L-329.562 -39.4606L-297.304 -59.481C-269.02 -76.8852 -251.159 -87.8951 -243.723 -92.5107C-237.44 -96.413 -201.28 -118.929 -170.385 -138.178L-169.805 -137.247L-296.812 -58.4356C-300.23 -56.3121 -310.301 -49.9744 -327.023 -39.4224L-328.84 -38.284L-328.818 -38.2621ZM-439.532 30.6981C-456.788 41.4197 -475.687 53.1867 -478.39 54.8615C-481.568 56.8354 -490.203 62.1461 -504.294 70.7934L-504.885 69.551C-475.261 51.0632 -453.765 37.6542 -440.396 29.3243L-439.532 30.6981ZM279.744 -416.64C278.048 -415.578 276.86 -414.828 276.417 -414.527C273.729 -412.737 216.213 -377.174 208.781 -372.549C203.423 -369.227 135.924 -327.156 96.666 -302.751L96.0585 -303.846L202 -369.752L279.131 -417.74L279.744 -416.64ZM320.409 -441.848L319.774 -442.998L428.266 -510.316L493.334 -550.707L493.778 -549.766C493.778 -549.766 437.761 -515.181 431.134 -511.071C426.715 -508.331 417.008 -502.274 402.011 -492.901C358.676 -465.776 331.475 -448.759 320.409 -441.848ZM117.967 -44.1182L117.135 -43.6202C109.117 -56.4052 98.7129 -72.9993 89.2227 -88.1268L90.071 -88.6358C99.2766 -73.9572 110.152 -56.6022 117.967 -44.1182ZM148.824 5.13904C160.449 23.6981 173.277 44.1836 176.348 49.0929L236.069 144.679L267.003 194.177L266.313 194.61C266.313 194.61 239.818 151.98 236.671 146.94C234.57 143.572 229.931 136.189 222.754 124.79C197.238 84.3155 183.401 62.3504 181.241 58.8951C178.001 53.7067 164.094 31.3 162.725 29.2641C162.058 28.268 155.2 17.2946 147.948 5.67542L148.824 5.13904ZM-72.2863 -346.443L-109.393 -405.819L-108.589 -406.285C-95.6214 -385.349 -87.3991 -372.096 -83.9219 -366.529C-82.488 -364.23 -77.7538 -356.677 -71.5912 -346.826L-72.2863 -346.443ZM-151.486 -472.481C-159.017 -484.449 -163.396 -491.436 -164.622 -493.443C-168.042 -499.069 -194.515 -541.288 -196.787 -544.916C-198.297 -547.339 -202.365 -553.907 -208.991 -564.619L-208.077 -565.167C-186.787 -531.332 -174.287 -511.445 -170.576 -505.505L-150.326 -473.132L-151.486 -472.481ZM-61.8054 -1.25348C-58.1166 -17.1252 -54.1925 -33.9767 -50.4763 -49.9251L-49.2557 -49.6678L-60.5685 -0.996277L-61.8054 -1.25348ZM-72.2042 43.3954L-78.3832 72.4791L-77.7703 72.6104C-85.0549 103.861 -103.685 183.839 -106.854 197.395C-110.723 213.935 -144.284 357.383 -146.862 368.417C-148.588 375.772 -155.496 405.299 -167.588 456.997L-168.551 456.625C-168.551 456.625 -150.583 380.517 -148.476 371.492C-147.068 365.476 -143.997 352.236 -139.265 331.775C-122.507 259.089 -113.403 219.651 -111.955 213.459C-109.766 204.155 -100.325 164.202 -99.5529 160.442C-98.7812 156.682 -80.3973 78.5104 -78.011 68.3688C-77.4966 66.2344 -75.3457 56.8919 -72.1877 43.3954H-72.2042ZM35.8716 -419.535L36.9662 -419.343C32.3962 -399.684 29.0742 -385.411 28.7896 -384.185C28.5652 -383.238 26.4471 -374.098 23.3165 -360.601L22.1781 -360.798C27.1586 -382.072 32.6371 -405.584 35.8881 -419.535H35.8716ZM55.1586 -502.041L82.8247 -620.16C83.9193 -624.812 87.0682 -638.591 92.2712 -661.497C108.274 -731.019 117.086 -769.102 118.706 -775.747C121.141 -785.708 138.737 -861.356 140.259 -867.852C141.269 -872.187 144.051 -883.903 148.605 -903L149.88 -902.507C135.796 -841.75 127.516 -806.067 125.038 -795.461C122.561 -784.854 108.854 -726.28 83.9193 -619.738C74.7976 -581.354 69.0583 -557.101 66.7012 -546.98C65.5683 -542.131 61.3869 -524.179 56.1984 -501.866L55.1586 -502.041ZM-275.773 -302.374L-390.16 -329.137C-394.812 -330.232 -408.591 -333.38 -431.497 -338.583C-501.019 -354.586 -539.102 -363.393 -545.747 -365.002C-555.708 -367.437 -631.356 -385.033 -637.852 -386.554C-642.187 -387.576 -653.903 -390.364 -673 -394.917L-672.507 -396.198C-611.75 -382.114 -576.067 -373.833 -565.461 -371.356L-389.738 -330.242C-351.354 -321.121 -327.101 -315.381 -316.98 -313.024L-275.56 -303.381L-275.773 -302.374ZM314.919 -164.454L315.368 -165.614C351.632 -157.164 415.42 -142.299 427.39 -139.502L598.411 -99.4888L686.992 -78.7625L686.62 -77.7992C686.62 -77.7992 610.512 -95.7672 601.487 -97.8743C595.47 -99.2791 582.231 -102.349 561.769 -107.085C489.084 -123.844 449.645 -132.945 443.453 -134.39C434.149 -136.58 394.196 -146.026 390.436 -146.798C387.563 -147.383 341.119 -158.291 314.919 -164.443V-164.454Z" fill="white"/>
</g>
</g>
</g>
</g>
<g id="Fixed Footer" clip-path="url(#clip4_0_1)">
<path id="Vector_2" d="M9.69361 29.6495L17.7513 20.4362C18.121 20.0137 18.0726 19.3748 17.6455 19.0109C17.2178 18.6456 16.5717 18.6921 16.202 19.1147L10.0265 26.1768V1.01089C10.0265 0.452881 9.56877 0 9.00321 0C8.43765 0 7.97988 0.452881 7.97988 1.01089V26.4308L4.34299 22.4055L1.82561 19.2609C1.47495 18.8235 0.831623 18.7487 0.388182 19.0951C0.133032 19.2946 0 19.5905 0 19.889C0 20.1087 0.0716343 20.3298 0.221039 20.5158L2.77798 23.7055L8.15658 29.6617C8.35237 29.8787 8.63345 30.002 8.92817 30C9.2222 29.9973 9.50123 29.8706 9.69361 29.6495Z" fill="#00D54B"/>
</g>
</g>
</g>
<defs>
<clipPath id="clip0_0_1">
<rect width="1366" height="3695" fill="white" transform="translate(-673 -628)"/>
</clipPath>
<clipPath id="clip1_0_1">
<rect width="1360" height="1360" fill="white" transform="translate(-673 -903)"/>
</clipPath>
<clipPath id="clip2_0_1">
<rect width="1366" height="692" fill="white" transform="translate(-673 -626)"/>
</clipPath>
<clipPath id="clip3_0_1">
<rect width="1366" height="967" fill="white" transform="translate(-673 -903)"/>
</clipPath>
<clipPath id="clip4_0_1">
<rect width="1243" height="65" fill="white" transform="translate(-613 -18)"/>
</clipPath>
</defs>
</svg>
